PathFileType	4	(X/Y/Z)	Walk3.trc
DataRate	CameraRate	NumFrames	NumMarkers	Units	OrigDataRate	OrigDataStartFrame	OrigNumFrames
200.000000	200.000000	4	68	mm	200.000000	775	1063
Frame#	Times		LFHD		LowerBodyModelVer		RFHD		RACR1		RCAR		LElbow		RWRU		RUA1		LACR1		LLFC		RASI		RFA1		LUA1		LTH3		LTB1		RTH2		LMT1		LMT5		RTH4		LTB4		LTH4		LTB3		LToe		RLFC		CLAV		STRN		LTH2		LLMAL		LASI		LTH1		PELOrigin		RTH3		LWRU		RElbow		RBack		LFA1		LPSI		RMT1		RMT5		LBHD		RPSI		LHJC		MidPelvis		OPelvis		RHJC		SACR		XPelvis		YPelvis		ZPelvis		RCAL		LCAR		C7		RToe		RLMAL		RBHD		RTB2		RTB3		RTH1		LWRR		RTB1		RTB4		RMMAL		LTB2		RElbowM		T10		RWRR		LMMAL		LCAL
			X1	Y1	Z1	X2	Y2	Z2	X3	Y3	Z3	X4	Y4	Z4	X5	Y5	Z5	X6	Y6	Z6	X7	Y7	Z7	X8	Y8	Z8	X9	Y9	Z9	X10	Y10	Z10	X11	Y11	Z11	X12	Y12	Z12	X13	Y13	Z13	X14	Y14	Z14	X15	Y15	Z15	X16	Y16	Z16	X17	Y17	Z17	X18	Y18	Z18	X19	Y19	Z19	X20	Y20	Z20	X21	Y21	Z21	X22	Y22	Z22	X23	Y23	Z23	X24	Y24	Z24	X25	Y25	Z25	X26	Y26	Z26	X27	Y27	Z27	X28	Y28	Z28	X29	Y29	Z29	X30	Y30	Z30	X31	Y31	Z31	X32	Y32	Z32	X33	Y33	Z33	X34	Y34	Z34	X35	Y35	Z35	X36	Y36	Z36	X37	Y37	Z37	X38	Y38	Z38	X39	Y39	Z39	X40	Y40	Z40	X41	Y41	Z41	X42	Y42	Z42	X43	Y43	Z43	X44	Y44	Z44	X45	Y45	Z45	X46	Y46	Z46	X47	Y47	Z47	X48	Y48	Z48	X49	Y49	Z49	X50	Y50	Z50	X51	Y51	Z51	X52	Y52	Z52	X53	Y53	Z53	X54	Y54	Z54	X55	Y55	Z55	X56	Y56	Z56	X57	Y57	Z57	X58	Y58	Z58	X59	Y59	Z59	X60	Y60	Z60	X61	Y61	Z61	X62	Y62	Z62	X63	Y63	Z63	X64	Y64	Z64	X65	Y65	Z65	X66	Y66	Z66	X67	Y67	Z67	X68	Y68	Z68

775	3.875	-255.97	1580.7	-72.585	9	2014	4	-251.92	1580	24.95	-382.38	1379.5	151.61	-373.82	794.21	322.7	-453.2	1063.9	-306.39	-421.73	843.79	329.31	-424.99	1238	241.66	-363.16	1350.5	-207.21	-310.22	486.12	-155.56	-303.9	962.19	163.58	-406.46	952.88	303.3	-383.47	1201.8	-278.32	-305.2	559.33	-176.47	-279.68	334.1	-49.7	-311.36	634.85	202.58	-214.74	36.113	-27.512	-227.16	25.275	-118.91	-369.89	631.81	215.88	-293.16	249.54	-54.24	-310.73	642.27	-205.96	-300.15	163.79	-55.164	-172.54	31.223	-25.576	-368.46	459.82	202.52	-298.73	1336.7	-24.725	-238.29	1219.9	-17.519	-258.28	654.14	-178.22	-344.99	67.803	-116.04	-290.29	962.95	-188.4	-312.67	722.39	-234.89	-297.1	962.57	-12.409	-366.68	545.26	206.54	-472.63	822.5	-363.85	-475.68	1076.6	277.92	-521.05	1317.5	73.486	-424.34	932.93	-336.32	-529.72	979.84	-114.33	-576.17	66.772	88.256	-597.35	69.39	171.25	-407.06	1555.2	-94.923	-549.68	974.6	19.163	-380.46	855.18	-135.71	-418.4	969.9	-29.997	-297.1	962.57	-12.409	-389.71	854.67	103.63	-539.7	977.22	-47.585	-217.3	957.79	-9.3353	-292.33	1042.4	-12.053	-300.19	962.4	67.531	-703.84	200.9	112.17	-446.85	767.35	-361.98	-459.25	1414.5	-22.746	-546.71	39.152	100.8	-646.84	188.32	163.33	-421.93	1565	40.135	-470	306.68	183.13	-522.8	235.81	121.37	-361.44	715.67	225.69	-420.56	811.88	-310.76	-384.94	337.84	128.7	-453.87	286.83	125.04	-617.6	181.09	82.505	-292.12	251.78	-115.68	-499.03	1059.1	190.18	-515.51	1083.9	-25.755	-370.29	851.34	276.51	-338.15	73.975	-30.394	-401.84	28.75	-77.377
776	3.88	-251.33	1581.2	-73.481	9	2014	4	-247.34	1580.5	24.046	-378.46	1380.2	150.87	-372.35	793.96	320.62	-446.97	1063.7	-307.66	-419.72	844.08	327.84	-421.55	1238.9	240.85	-358.71	1350.8	-208.04	-309.1	486.07	-155.79	-299.91	962.9	163.67	-403.71	953.07	301.89	-377.98	1202	-279.13	-303.78	559.26	-176.64	-279.45	334.01	-49.76	-304.95	636.8	202.86	-214.77	36.13	-27.561	-227.17	25.253	-118.94	-363.54	633.07	215.72	-292.91	249.43	-54.349	-309.28	642.2	-206.11	-299.98	163.66	-55.295	-172.54	31.228	-25.658	-360.25	461.4	202.67	-294.42	1337.2	-25.544	-233.97	1220.6	-18.219	-256.59	653.94	-178.8	-345.02	67.779	-116.04	-286.19	963.26	-188.72	-311.09	722.25	-235.18	-293.05	963.08	-12.526	-359.37	546.62	206.63	-463.61	822.05	-364.92	-472.17	1077.3	276.97	-516.86	1318.1	72.333	-416.7	933	-337.25	-525.45	980.33	-114.56	-564.79	67.438	88.255	-586.38	70.327	171.18	-402.4	1555.8	-95.918	-545.27	975.03	18.957	-376.47	855.43	-135.88	-414.21	970.38	-30.162	-293.05	963.08	-12.526	-385.8	855.18	103.75	-535.36	977.68	-47.799	-213.25	958.3	-9.4244	-288.27	1042.9	-12.257	-296.16	963	67.414	-693.92	200.46	110.97	-437.07	767.32	-363.06	-454.78	1415	-23.744	-535.24	39.94	101.1	-636.94	188.58	162.48	-417.37	1565.6	39.124	-460.88	307.81	183.05	-512.99	236.58	121.14	-355.99	717	225.74	-411.72	812.05	-311.6	-375.68	339.27	128.98	-444.33	287.92	125.06	-607.29	181.33	81.808	-291.85	251.66	-115.77	-495.81	1060.1	189.26	-511.16	1084.4	-26.272	-368.53	851.28	274.68	-338.11	73.965	-30.409	-401.85	28.735	-77.356
777	3.885	-246.69	1581.7	-74.345	9	2014	4	-242.78	1581	23.174	-374.5	1380.9	150.17	-370.84	793.71	318.59	-440.73	1063.5	-308.92	-417.65	844.36	326.44	-418.08	1239.8	240.07	-354.29	1351	-208.85	-307.97	486.04	-156	-295.94	963.54	163.76	-400.92	953.25	300.52	-372.56	1202	-279.91	-302.23	559.23	-176.75	-279.22	333.94	-49.83	-298.56	638.77	203.12	-214.8	36.15	-27.616	-227.19	25.23	-118.98	-357.22	634.38	215.54	-292.67	249.34	-54.452	-307.75	642.17	-206.2	-299.81	163.55	-55.419	-172.55	31.234	-25.743	-352.1	462.97	202.76	-290.13	1337.7	-26.341	-229.66	1221.2	-18.855	-254.84	653.81	-179.33	-345.05	67.76	-116.05	-282.09	963.51	-189.02	-309.49	722.15	-235.42	-289.01	963.53	-12.63	-352.11	548.02	206.68	-454.52	821.62	-365.98	-468.63	1078	276.07	-512.66	1318.6	71.245	-409.03	933.08	-338.17	-521.2	980.81	-114.79	-553.01	67.927	88.143	-574.96	71.005	171.02	-397.76	1556.3	-96.876	-540.88	975.46	18.75	-372.5	855.64	-136.03	-410.03	970.83	-30.324	-289.01	963.53	-12.63	-381.92	855.66	103.86	-531.04	978.13	-48.018	-209.22	958.73	-9.497	-284.22	1043.4	-12.448	-292.15	963.54	67.308	-683.76	199.59	109.83	-427.2	767.33	-364.15	-450.32	1415.6	-24.677	-523.31	40.639	101.26	-626.76	188.49	161.64	-412.81	1566.2	38.152	-451.62	308.81	182.95	-502.98	237.18	120.87	-350.58	718.36	225.79	-402.82	812.23	-312.43	-366.34	340.67	129.2	-434.66	288.93	125.03	-596.74	181.31	81.094	-291.59	251.55	-115.86	-492.57	1061	188.39	-506.82	1085	-26.78	-366.74	851.2	272.89	-338.07	73.965	-30.435	-401.86	28.723	-77.336
778	3.89	-242.07	1582.1	-75.176	9	2014	4	-238.22	1581.4	22.333	-370.5	1381.5	149.49	-369.29	793.46	316.62	-434.49	1063.3	-310.15	-415.51	844.65	325.1	-414.59	1240.6	239.32	-349.89	1351.2	-209.62	-306.84	486.03	-156.2	-291.99	964.14	163.84	-398.08	953.41	299.19	-367.2	1202.1	-280.67	-300.54	559.25	-176.82	-278.99	333.89	-49.916	-292.21	640.75	203.36	-214.82	36.174	-27.678	-227.2	25.205	-119.02	-350.9	635.72	215.35	-292.44	249.28	-54.557	-306.13	642.18	-206.25	-299.66	163.47	-55.538	-172.56	31.242	-25.831	-344	464.52	202.8	-285.86	1338.2	-27.114	-225.37	1221.8	-19.423	-253.01	653.73	-179.81	-345.08	67.747	-116.06	-277.99	963.71	-189.3	-307.85	722.11	-235.59	-284.99	963.92	-12.727	-344.89	549.46	206.68	-445.38	821.22	-367.02	-465.09	1078.7	275.22	-508.45	1319.2	70.222	-401.32	933.18	-339.07	-516.97	981.27	-115.03	-540.84	68.239	87.937	-563.1	71.429	170.79	-393.13	1556.8	-97.796	-536.48	975.89	18.54	-368.56	855.82	-136.17	-405.86	971.25	-30.485	-284.99	963.92	-12.727	-378.08	856.11	103.97	-526.73	978.58	-48.243	-205.2	959.1	-9.5585	-280.16	1043.8	-12.633	-288.16	964.02	67.21	-673.36	198.3	108.75	-417.24	767.4	-365.25	-445.87	1416.1	-25.547	-510.93	41.243	101.29	-616.3	188.04	160.81	-408.26	1566.7	37.216	-442.23	309.69	182.81	-492.8	237.62	120.56	-345.19	719.73	225.82	-393.86	812.44	-313.26	-356.94	342.05	129.35	-424.87	289.84	124.96	-585.94	181.02	80.373	-291.35	251.47	-115.96	-489.31	1061.9	187.55	-502.5	1085.5	-27.279	-364.93	851.12	271.14	-338.05	73.976	-30.474	-401.87	28.713	-77.318
